Coordinates
version=1
nRows=21
nColumns=12
inDegrees=yes

Units are S.I. units (second, meters, Newtons, ...)
Angles are in degrees

endheader
time	SC_y	SC_z	SC_x	AC_y	AC_z	AC_x	GH_y	GH_z	GH_yy	EL_x	PS_y
       0.0              -14.09          2.888           29.5          44.83           -6.3          17.07         -50.96         0.9527          160.8          50.88          39.31
    0.0103              -14.09          2.889           29.5          44.83           -6.3          17.07         -50.98         0.9594          160.8          50.89          39.32
    0.0206              -14.09          2.891           29.5          44.83         -6.299          17.06         -50.99         0.9665          160.8          50.89          39.34
    0.0309              -14.09          2.892           29.5          44.83         -6.299          17.06         -51.01          0.974          160.8           50.9          39.36
   0.04119              -14.09          2.894           29.5          44.84         -6.298          17.05         -51.03         0.9821          160.8          50.91          39.38
   0.05149              -14.09          2.896          29.51          44.84         -6.298          17.05         -51.05         0.9907          160.8          50.93           39.4
   0.06179              -14.09          2.898          29.51          44.84         -6.297          17.04         -51.08         0.9999          160.8          50.94          39.42
   0.07209              -14.09          2.901          29.51          44.85         -6.296          17.04          -51.1           1.01          160.8          50.95          39.45
   0.08239              -14.09          2.903          29.51          44.85         -6.296          17.03         -51.13           1.02          160.8          50.96          39.47
   0.09269              -14.09          2.906          29.52          44.85         -6.295          17.03         -51.15          1.031          160.8          50.98           39.5
     0.103              -14.09          2.909          29.52          44.86         -6.294          17.02         -51.18          1.044          160.8          50.99          39.53
    0.1133              -14.09          2.912          29.52          44.86         -6.293          17.02         -51.22          1.057          160.8          51.01          39.56
    0.1236              -14.09          2.915          29.52          44.87         -6.292          17.01         -51.25          1.071          160.8          51.03          39.59
    0.1339              -14.09          2.918          29.53          44.87         -6.291           17.0         -51.29          1.086          160.8          51.05          39.63
    0.1442              -14.09          2.922          29.53          44.88          -6.29          16.99         -51.33          1.102          160.8          51.07          39.67
    0.1545              -14.09          2.926          29.53          44.88         -6.289          16.98         -51.37           1.12          160.8          51.09          39.71
    0.1648              -14.09          2.931          29.54          44.89         -6.287          16.97         -51.42          1.139          160.8          51.12          39.76
    0.1751              -14.09          2.936          29.54           44.9         -6.286          16.96         -51.47           1.16          160.8          51.14          39.81
    0.1854              -14.09          2.941          29.55           44.9         -6.284          16.95         -51.53          1.183          160.8          51.17          39.87
    0.1957              -14.09          2.947          29.55          44.91         -6.283          16.94         -51.59          1.209          160.7           51.2          39.93
     0.206              -14.09          2.953          29.56          44.92         -6.281          16.93         -51.66          1.236          160.7          51.24           40.0
